<svg width="72" height="72" viewBox="0 0 72 72" fill="none" xmlns="http://www.w3.org/2000/svg">
	<g clip-path="url(#clip0_241_547)">
		<mask id="mask0_241_547" style="mask-type:luminance" maskUnits="userSpaceOnUse" x="0" y="0" width="72" height="72">
			<path d="M72 0H0V72H72V0Z" fill="white" />
		</mask>
		<g mask="url(#mask0_241_547)">
			<path d="M7.2 18V7.2H18V0H0V18H7.2ZM36 10.8H43.2V36H46.8V28.8H50.4V18H57.6V32.4H54V43.2H46.8V46.8H43.2V50.4H46.8V46.8H54V43.2H57.6V39.6H64.8V46.8H61.2V50.4H57.6V54H54V57.6H50.4V61.2H25.2V57.6H21.6V54H18V39.6H14.4V32.4H10.8V21.6H18V28.8H21.6V39.6H25.2V25.2H21.6V14.4H28.8V21.6H32.4V36H36V10.8ZM7.2 64.8V54H0V72H18V64.8H7.2ZM64.8 64.8V54H72V72H54V64.8H64.8ZM64.8 18V7.2H54V0H72V18H64.8Z" fill="white" />
		</g>
	</g>
	<defs>
		<clipPath id="clip0_241_547">
			<rect width="72" height="72" fill="white" />
		</clipPath>
	</defs>
</svg>